<?xml version="1.0" standalone="no"?>
<!DOCTYPE svg PUBLIC "-//W3C//DTD SVG 20010904//EN"
 "http://www.w3.org/TR/2001/REC-SVG-20010904/DTD/svg10.dtd">
<svg version="1.0" xmlns="http://www.w3.org/2000/svg"
 width="1200.000000pt" height="630.000000pt" viewBox="0 0 1200.000000 630.000000"
 preserveAspectRatio="xMidYMid meet">

<g transform="translate(0.000000,630.000000) scale(0.100000,-0.100000)"
fill="#000000" stroke="none">
<path d="M6723 4966 c-377 -72 -638 -316 -708 -665 -21 -104 -16 -313 10 -411
88 -329 346 -552 709 -615 365 -63 745 80 928 348 105 154 150 300 150 492 1
239 -69 427 -220 587 -112 118 -267 207 -433 249 -109 27 -333 34 -436 15z
m232 -487 c123 -23 214 -93 268 -207 30 -62 32 -75 32 -172 0 -93 -3 -112 -27
-163 -36 -75 -115 -159 -181 -188 -44 -21 -68 -24 -162 -24 -95 0 -116 3 -157
23 -75 38 -134 96 -170 170 -32 64 -33 72 -33 182 0 104 3 121 27 172 51 110
151 188 265 208 69 11 73 11 138 -1z"/>
<path d="M4272 4078 l3 -833 780 4 c573 2 782 6 787 15 9 13 11 458 2 480 -5
14 -60 16 -510 16 l-504 0 0 575 0 575 -280 0 -280 0 2 -832z"/>
<path d="M4980 3139 c-319 -31 -592 -211 -714 -469 -63 -133 -79 -214 -79
-390 0 -140 3 -164 27 -245 73 -242 210 -405 431 -515 162 -80 311 -107 504
-90 439 39 716 313 786 776 8 55 15 129 15 167 l0 67 -450 0 -450 0 0 -215 0
-215 175 0 c99 0 175 -4 175 -9 0 -5 -17 -23 -39 -40 -198 -157 -477 -118
-607 85 -50 78 -67 150 -62 263 3 82 8 106 35 163 41 87 101 151 177 188 70
35 171 54 231 45 94 -16 191 -80 241 -160 16 -25 31 -44 34 -42 3 1 96 48 208
105 111 56 202 106 202 111 0 21 -102 161 -151 206 -107 100 -207 156 -343
190 -109 27 -231 36 -346 24z"/>
<path d="M6800 3140 c-476 -46 -800 -392 -800 -854 0 -352 173 -628 485 -772
203 -94 470 -114 694 -54 104 28 263 108 338 170 344 280 399 820 121 1185
-29 38 -82 93 -118 123 -78 63 -236 143 -341 172 -65 18 -246 42 -289 38 -8 0
-49 -4 -90 -8z m240 -522 c104 -47 176 -132 205 -243 63 -245 -85 -472 -322
-492 -161 -13 -302 65 -370 207 -35 73 -44 222 -19 302 37 114 136 214 243
244 75 21 197 13 263 -18z"/>
</g>
</svg>
